<svg width="32" height="31" viewBox="0 0 32 31" fill="none" xmlns="http://www.w3.org/2000/svg">
<path d="M12.0417 11.376V19.624C12.0417 20.2149 12.3187 20.6646 12.8729 20.9729C13.4271 21.2813 13.968 21.2556 14.4958 20.8958L21.0667 16.8104C21.568 16.5021 21.8187 16.0653 21.8187 15.5C21.8187 14.9347 21.568 14.4979 21.0667 14.1896L14.4958 10.1042C13.968 9.74445 13.4271 9.71875 12.8729 10.0271C12.3187 10.3354 12.0417 10.7851 12.0417 11.376ZM16 30.9167C13.8097 30.9167 11.7514 30.5117 9.82499 29.7018C7.8986 28.893 6.22291 27.7948 4.79791 26.4073C3.37291 25.0198 2.24505 23.3882 1.41432 21.5125C0.582546 19.6368 0.166656 17.6326 0.166656 15.5C0.166656 13.3674 0.582546 11.3632 1.41432 9.4875C2.24505 7.61181 3.37291 5.98021 4.79791 4.59271C6.22291 3.20521 7.8986 2.10652 9.82499 1.29663C11.7514 0.487766 13.8097 0.0833359 16 0.0833359C18.1903 0.0833359 20.2486 0.487766 22.175 1.29663C24.1014 2.10652 25.7771 3.20521 27.2021 4.59271C28.6271 5.98021 29.7549 7.61181 30.5857 9.4875C31.4174 11.3632 31.8333 13.3674 31.8333 15.5C31.8333 17.6326 31.4174 19.6368 30.5857 21.5125C29.7549 23.3882 28.6271 25.0198 27.2021 26.4073C25.7771 27.7948 24.1014 28.893 22.175 29.7018C20.2486 30.5117 18.1903 30.9167 16 30.9167Z" fill="white"/>
</svg>
